<svg width="34" height="30" viewBox="0 0 34 30" fill="none" xmlns="http://www.w3.org/2000/svg">
<path d="M24.8009 0.000946761C26.0082 -0.0153748 27.206 0.215774 28.3205 0.680139C29.4349 1.1445 30.4425 1.83224 31.2809 2.70095C32.1515 3.53857 32.8411 4.54572 33.3072 5.66024C33.7733 6.77476 34.006 7.97298 33.9909 9.18095C33.9536 12.5171 32.6859 15.722 30.4309 18.1809C28.8748 19.9018 27.1753 21.4875 25.3509 22.9209C22.9909 24.8009 21.2909 26.1909 20.1509 27.0309L17.2809 29.1509C17.1894 29.1906 17.0907 29.211 16.9909 29.211C16.8912 29.211 16.7925 29.1906 16.7009 29.1509L13.8309 27.0309C12.6909 26.1909 10.9909 24.8009 8.64095 22.9309C6.81655 21.4975 5.11711 19.9118 3.56095 18.1909C1.30598 15.732 0.0382525 12.5271 0.000946761 9.19095C-0.016747 7.98203 0.213735 6.78234 0.678141 5.66604C1.14255 4.54975 1.83101 3.54058 2.70095 2.70095C3.54058 1.83101 4.54975 1.14255 5.66604 0.678141C6.78234 0.213735 7.98203 -0.016747 9.19095 0.000946761C11.4723 -0.0200561 13.673 0.843745 15.3309 2.41095C15.9713 2.98156 16.5299 3.63774 16.9909 4.36095C17.452 3.63774 18.0106 2.98156 18.6509 2.41095C20.3114 0.841333 22.5162 -0.0226522 24.8009 0.000946761V0.000946761ZM29.7309 17.6209C31.8383 15.3111 33.0234 12.3074 33.0609 9.18095C33.0781 8.09322 32.8732 7.01342 32.4588 6.00757C32.0445 5.00172 31.4293 4.09095 30.6509 3.33095C29.8909 2.5526 28.9802 1.93743 27.9743 1.52305C26.9685 1.10868 25.8887 0.903799 24.8009 0.920947C22.7441 0.904003 20.756 1.66069 19.2309 3.04095C18.4772 3.74971 17.8543 4.58585 17.3909 5.51095C17.3508 5.58164 17.2926 5.64044 17.2224 5.68134C17.1521 5.72224 17.0723 5.74379 16.9909 5.74379C16.9096 5.74379 16.8298 5.72224 16.7595 5.68134C16.6893 5.64044 16.6311 5.58164 16.5909 5.51095C16.1276 4.58585 15.5047 3.74971 14.7509 3.04095C13.23 1.66049 11.2449 0.903573 9.19095 0.920947C8.10155 0.902432 7.01985 1.10664 6.01218 1.52106C5.00451 1.93548 4.09212 2.55136 3.33095 3.33095C2.5526 4.09095 1.93743 5.00172 1.52305 6.00757C1.10868 7.01342 0.903799 8.09322 0.920947 9.18095C0.958521 12.3074 2.14362 15.3111 4.25095 17.6209C6.51095 20.2209 10.7576 23.7609 16.9909 28.2409C23.2309 23.7609 27.4776 20.2209 29.7309 17.6209Z" fill="#6B6B6B"/>
</svg>
