<svg width="34" height="49" viewBox="0 0 34 49" fill="none" xmlns="http://www.w3.org/2000/svg">
<path d="M0.90128 14.085C3.80267 11.6366 6.27351 8.7196 8.21128 5.45499C7.68829 3.94153 7.37537 2.36349 7.28128 0.764991C7.28294 0.631598 7.32624 0.502058 7.40513 0.394482C7.48402 0.286905 7.59455 0.206669 7.72128 0.164991C7.84806 0.0972442 7.99242 0.0695765 8.13527 0.0856468C8.27812 0.101717 8.41272 0.160768 8.52128 0.254991L9.64128 1.00499C10.5331 1.51855 11.4746 1.94069 12.4513 2.26499C13.5861 2.72896 14.7957 2.98308 16.0213 3.01499C16.9796 3.01541 17.9363 3.09568 18.8813 3.25499C20.1604 3.50686 21.4032 3.91667 22.5813 4.47499C24.0314 5.09549 25.3512 5.98442 26.4713 7.09499C27.7544 8.50448 28.7286 10.1667 29.3313 11.975C30.185 14.3987 30.5982 16.9557 30.5513 19.525C30.4676 24.99 29.4531 30.4008 27.5513 35.525C27.491 35.6718 27.3863 35.7961 27.2518 35.8804C27.1172 35.9647 26.9597 36.0048 26.8013 35.995H26.5213C26.4238 35.9615 26.3341 35.9088 26.2574 35.8399C26.1808 35.7711 26.1187 35.6876 26.0748 35.5944C26.031 35.5011 26.0063 35.4 26.0023 35.2971C25.9982 35.1941 26.0149 35.0914 26.0513 34.995V34.995C27.9628 30.0576 28.9787 24.819 29.0513 19.525C29.081 17.2491 28.7433 14.9833 28.0513 12.815C27.55 11.2041 26.7343 9.70857 25.6513 8.41499C24.7131 7.37258 23.5645 6.54096 22.2813 5.97499C21.2046 5.45341 20.07 5.0607 18.9013 4.80499C17.9471 4.60905 16.9753 4.51187 16.0013 4.51499C13.5076 4.41085 11.0886 3.63333 9.00128 2.26499C9.2 3.31968 9.48427 4.35644 9.85128 5.36499C9.8797 5.45964 9.88546 5.55964 9.86808 5.65692C9.85071 5.7542 9.8107 5.84603 9.75128 5.92499C7.70824 9.45552 5.04174 12.5862 1.88128 15.165C1.38128 15.545 1.32128 16.105 1.69128 16.855C1.94079 17.5444 2.33887 18.1705 2.85731 18.689C3.37575 19.2074 4.00186 19.6055 4.69128 19.855C5.09408 19.9856 5.532 19.9533 5.91128 19.765C6.35128 19.5183 7.91461 18.455 10.6013 16.575C10.7406 16.4825 10.9041 16.4332 11.0713 16.4332C11.2385 16.4332 11.402 16.4825 11.5413 16.575C11.961 16.8613 12.4422 17.0448 12.946 17.1108C13.4497 17.1769 13.962 17.1235 14.4413 16.955C15.4914 16.7232 16.4241 16.1239 17.0713 15.265C18.0713 13.765 18.3513 12.515 17.9113 11.515C17.8053 11.3884 17.7533 11.2253 17.7664 11.0607C17.7795 10.8961 17.8566 10.7432 17.9813 10.635C18.0574 10.5753 18.1464 10.5342 18.2413 10.515C18.3793 10.4173 18.5505 10.3783 18.7172 10.4064C18.884 10.4345 19.0328 10.5275 19.1313 10.665C19.1819 10.7522 19.2189 10.8466 19.2413 10.945C19.9913 12.375 19.6713 14.095 18.3013 16.095C17.7966 16.826 17.1062 17.4093 16.3013 17.785V17.975C16.3308 19.517 15.9402 21.038 15.1713 22.375C13.915 24.2156 12.4372 25.8949 10.7713 27.375C9.16108 28.8369 7.83837 30.587 6.87128 32.535C5.94852 34.2658 5.48379 36.2039 5.52128 38.165C5.47458 39.1554 5.6335 40.1447 5.98804 41.0707C6.34258 41.9966 6.88506 42.8391 7.58128 43.545H28.2813C28.4802 43.545 28.671 43.624 28.8116 43.7647C28.9523 43.9053 29.0313 44.0961 29.0313 44.295C29.0313 44.4939 28.9523 44.6847 28.8116 44.8253C28.671 44.966 28.4802 45.045 28.2813 45.045H7.28128C7.19374 45.0502 7.10614 45.0359 7.02483 45.003C6.94353 44.9702 6.87058 44.9196 6.81128 44.855C5.87767 44.0168 5.14144 42.9821 4.65556 41.8253C4.16968 40.6685 3.94623 39.4185 4.00128 38.165C3.96234 36.0132 4.46071 33.8856 5.45128 31.975C6.5008 29.81 7.94948 27.8626 9.72128 26.235C11.2049 24.927 12.5457 23.4655 13.7213 21.875C14.3722 20.8481 14.7444 19.6694 14.8013 18.455C13.556 18.8012 12.2286 18.6985 11.0513 18.165C9.63381 19.2222 8.15452 20.194 6.62128 21.075C6.28286 21.3063 5.89522 21.4557 5.48906 21.5113C5.0829 21.5668 4.66939 21.527 4.28128 21.395C3.39797 21.1019 2.60559 20.5852 1.98128 19.895C1.31132 19.1955 0.739428 18.4083 0.28128 17.555C-0.0169283 16.8258 -0.0798602 16.0217 0.10128 15.255C0.228758 14.7861 0.510606 14.3739 0.90128 14.085V14.085ZM32.0313 47.275C32.0543 47.4484 32.0086 47.6239 31.904 47.764C31.7993 47.9041 31.644 47.9978 31.4713 48.025H4.28128C4.08237 48.025 3.8916 47.946 3.75095 47.8053C3.6103 47.6647 3.53128 47.4739 3.53128 47.275C3.53128 47.0761 3.6103 46.8853 3.75095 46.7447C3.8916 46.604 4.08237 46.525 4.28128 46.525H31.2813C31.4536 46.4991 31.6291 46.5424 31.7696 46.6454C31.9101 46.7485 32.0042 46.9029 32.0313 47.075C32.0413 47.1413 32.0413 47.2087 32.0313 47.275V47.275ZM25.2813 2.36499C30.7813 6.05166 33.5313 11.7717 33.5313 19.525C33.4881 23.3844 32.9845 27.2249 32.0313 30.965C31.99 31.1305 31.8927 31.2766 31.7561 31.3786C31.6194 31.4807 31.4517 31.5324 31.2813 31.525H31.0913C30.9089 31.5024 30.7427 31.409 30.6285 31.265C30.5144 31.1209 30.4615 30.9377 30.4813 30.755C30.4873 30.6957 30.5042 30.6381 30.5313 30.585C31.4842 26.974 31.988 23.2593 32.0313 19.525C32.0313 12.3383 29.5013 7.02499 24.4413 3.58499C21.9884 2.097 19.1468 1.37615 16.2813 1.51499C16.1952 1.52772 16.1075 1.52331 16.0232 1.50202C15.9388 1.48073 15.8595 1.44298 15.7898 1.39094C15.7201 1.3389 15.6614 1.27359 15.617 1.19877C15.5727 1.12396 15.5435 1.04111 15.5313 0.954991C15.5214 0.892046 15.5214 0.827935 15.5313 0.764991C15.5171 0.679506 15.5201 0.592047 15.5402 0.507758C15.5603 0.423468 15.5971 0.344049 15.6483 0.274171C15.6996 0.204292 15.7643 0.145366 15.8386 0.100856C15.913 0.0563466 15.9955 0.0271525 16.0813 0.0149907C16.1476 0.00498436 16.215 0.00498436 16.2813 0.0149907C19.4492 -0.123127 22.5853 0.695746 25.2813 2.36499V2.36499Z" fill="#6B6B6B"/>
</svg>
