<svg width="31" height="30" viewBox="0 0 31 30" fill="none" xmlns="http://www.w3.org/2000/svg">
<path d="M0.139928 29.6909C0.0790803 29.6308 0.035753 29.5553 0.0146087 29.4725C-0.0065357 29.3897 -0.00469663 29.3027 0.0199279 29.2208L3.01993 20.2208C3.05036 20.155 3.09084 20.0943 3.13993 20.0409L19.1399 4.04085L19.1999 3.93085L22.7099 0.48085C22.8356 0.339922 22.9897 0.227155 23.162 0.149942C23.3344 0.0727292 23.5211 0.0328143 23.7099 0.0328143C23.8988 0.0328143 24.0855 0.0727292 24.2578 0.149942C24.4302 0.227155 24.5842 0.339922 24.7099 0.48085L29.6199 5.33085C29.8835 5.61702 30.0298 5.99182 30.0298 6.38085C30.0298 6.76988 29.8835 7.14468 29.6199 7.43085L26.1999 10.7508L26.1499 10.8008L10.1499 26.9409L9.91993 27.0508L0.599928 29.8109C0.587513 29.8287 0.571109 29.8434 0.552015 29.8538C0.532921 29.8643 0.511664 29.8701 0.489928 29.8709C0.422182 29.8673 0.35596 29.8494 0.295631 29.8184C0.235302 29.7873 0.182234 29.7439 0.139928 29.6909ZM0.599928 5.20085L5.27993 0.53085C5.60896 0.224294 6.03172 0.0375784 6.47993 0.00085012C6.7321 -0.00671565 6.98323 0.0362814 7.21852 0.127307C7.45382 0.218332 7.6685 0.355543 7.84993 0.53085C9.48993 2.40418 11.4899 4.50752 13.8499 6.84085C13.8984 6.88216 13.9374 6.9335 13.9641 6.99134C13.9908 7.04919 14.0047 7.11214 14.0047 7.17585C14.0047 7.23956 13.9908 7.30251 13.9641 7.36035C13.9374 7.4182 13.8984 7.46954 13.8499 7.51085C13.8175 7.5625 13.7726 7.60509 13.7192 7.6346C13.6659 7.66412 13.6059 7.6796 13.5449 7.6796C13.484 7.6796 13.424 7.66412 13.3706 7.6346C13.3173 7.60509 13.2723 7.5625 13.2399 7.51085C11.0199 5.33085 9.01993 3.22752 7.23993 1.20085C7.16994 1.10912 7.07865 1.03584 6.97396 0.98733C6.86927 0.938825 6.75434 0.916563 6.63911 0.922472C6.52389 0.928381 6.41183 0.962283 6.31266 1.02124C6.21348 1.0802 6.13017 1.16245 6.06993 1.26085L1.27993 5.90085C1.18074 5.96289 1.09896 6.04912 1.04226 6.15146C0.985563 6.25379 0.955817 6.36886 0.955817 6.48585C0.955817 6.60284 0.985563 6.71791 1.04226 6.82024C1.09896 6.92258 1.18074 7.00881 1.27993 7.07085V7.13085C1.31886 7.19081 1.36997 7.24192 1.42993 7.28085C1.5135 7.33913 1.59061 7.40618 1.65993 7.48085L1.95993 7.77085L2.30993 8.12085L5.74993 4.75085C5.79213 4.70379 5.84378 4.66616 5.9015 4.64039C5.95922 4.61462 6.02172 4.60131 6.08493 4.60131C6.14814 4.60131 6.21064 4.61462 6.26836 4.64039C6.32608 4.66616 6.37772 4.70379 6.41993 4.75085C6.46723 4.79396 6.50502 4.84646 6.53088 4.90501C6.55673 4.96355 6.57009 5.02685 6.57009 5.09085C6.57009 5.15485 6.55673 5.21815 6.53088 5.27669C6.50502 5.33524 6.46723 5.38774 6.41993 5.43085L3.05993 8.75085L5.21993 10.9108L6.67993 9.41085C6.72213 9.36379 6.77378 9.32616 6.8315 9.30039C6.88922 9.27462 6.95172 9.26131 7.01493 9.26131C7.07814 9.26131 7.14064 9.27462 7.19836 9.30039C7.25608 9.32616 7.30772 9.36379 7.34993 9.41085C7.39844 9.45216 7.4374 9.5035 7.46411 9.56135C7.49083 9.61919 7.50466 9.68214 7.50466 9.74585C7.50466 9.80956 7.49083 9.87251 7.46411 9.93036C7.4374 9.9882 7.39844 10.0395 7.34993 10.0808L5.85993 11.5708C6.44993 12.1208 6.95993 12.6308 7.37993 13.0908C7.61993 13.3308 7.61993 13.5408 7.37993 13.7408C7.34638 13.7949 7.29909 13.8392 7.24288 13.869C7.18666 13.8989 7.12353 13.9133 7.05993 13.9108C6.99769 13.9117 6.93617 13.8975 6.8805 13.8697C6.82483 13.8419 6.77663 13.8011 6.73993 13.7508L0.659928 7.75085C0.330413 7.43553 0.13369 7.00631 0.109928 6.55085C0.100486 6.0557 0.275086 5.57466 0.599928 5.20085ZM3.75993 20.8709L1.18993 28.7509L9.18993 26.3509L8.59993 24.3509H6.09993C6.02192 24.3692 5.94031 24.3648 5.86471 24.3382C5.78912 24.3117 5.7227 24.264 5.67329 24.201C5.62388 24.1379 5.59354 24.062 5.58586 23.9822C5.57818 23.9025 5.59347 23.8222 5.62993 23.7509V21.2809L3.75993 20.8709ZM19.5399 4.87085L4.33993 20.0508L5.97993 20.4009L20.4799 5.85085L19.5399 4.87085ZM6.53993 21.1809V23.3409H8.72993L23.4599 8.75085L21.1799 6.49085L6.53993 21.1809ZM25.1499 10.5209L24.0999 9.52085L9.42993 23.9109L9.95993 25.7509L25.1499 10.5209ZM20.4499 22.5209C20.497 22.5631 20.5346 22.6147 20.5604 22.6724C20.5862 22.7301 20.5995 22.7926 20.5995 22.8559C20.5995 22.9191 20.5862 22.9816 20.5604 23.0393C20.5346 23.097 20.497 23.1486 20.4499 23.1909L18.9299 24.6609C19.6699 25.4409 20.3699 26.1609 21.0299 26.8209L24.4199 23.4309C24.5162 23.3586 24.6353 23.3236 24.7554 23.3321C24.8754 23.3406 24.9884 23.3922 25.0735 23.4773C25.1586 23.5624 25.2101 23.6754 25.2187 23.7954C25.2272 23.9155 25.1921 24.0346 25.1199 24.1308L21.6699 27.5209L22.7799 28.6308C22.8574 28.7073 22.9498 28.7672 23.0512 28.8067C23.1527 28.8463 23.2611 28.8647 23.3699 28.8609C23.4781 28.8733 23.5876 28.8588 23.6888 28.8187C23.79 28.7786 23.8797 28.714 23.9499 28.6308L28.6299 23.9009C28.9399 23.6209 28.9799 23.3509 28.7499 23.0809L22.4299 16.8209C22.3829 16.7786 22.3452 16.727 22.3195 16.6693C22.2937 16.6116 22.2804 16.5491 22.2804 16.4859C22.2804 16.4226 22.2937 16.3601 22.3195 16.3024C22.3452 16.2447 22.3829 16.1931 22.4299 16.1509C22.4701 16.0989 22.5216 16.0569 22.5806 16.028C22.6395 15.9991 22.7043 15.9841 22.7699 15.9841C22.8356 15.9841 22.9003 15.9991 22.9593 16.028C23.0182 16.0569 23.0697 16.0989 23.1099 16.1509L29.3599 22.4009C29.4948 22.5405 29.5984 22.7073 29.6639 22.89C29.7294 23.0727 29.7553 23.2673 29.7399 23.4608C29.7263 23.8706 29.5707 24.263 29.2999 24.5709L24.6799 29.3409C24.3287 29.6548 23.8709 29.8229 23.3999 29.8109C22.9261 29.8224 22.4653 29.6545 22.1099 29.3409C20.7099 27.8209 18.7433 25.7742 16.2099 23.2009C15.9799 23.0109 15.9799 22.8009 16.2099 22.5609C16.4399 22.3209 16.6599 22.3309 16.8499 22.5609C17.2799 22.9509 17.7699 23.4409 18.3099 24.0209L19.7799 22.5009C19.8242 22.4556 19.8775 22.4202 19.9364 22.397C19.9953 22.3738 20.0584 22.3633 20.1216 22.3661C20.1849 22.3689 20.2468 22.3851 20.3034 22.4134C20.3599 22.4418 20.4099 22.4818 20.4499 22.5309V22.5209ZM23.3399 1.05085L20.1799 4.21085L25.7999 9.82085L28.9499 6.66085C29.009 6.6245 29.057 6.57267 29.0888 6.51097C29.1205 6.44927 29.1347 6.38006 29.1299 6.31085C29.1326 6.24194 29.1175 6.17351 29.086 6.11218C29.0544 6.05085 29.0076 5.99872 28.9499 5.96085L24.0399 1.05085C23.9989 0.99696 23.9459 0.953278 23.8852 0.923209C23.8245 0.89314 23.7577 0.877496 23.6899 0.877496C23.6222 0.877496 23.5553 0.89314 23.4946 0.923209C23.4339 0.953278 23.381 0.99696 23.3399 1.05085Z" fill="#6B6B6B"/>
</svg>
