<svg width="35" height="32" viewBox="0 0 35 32" fill="none" xmlns="http://www.w3.org/2000/svg">
<path d="M0.395136 31.27C0.326577 31.263 0.260628 31.2399 0.202602 31.2028C0.144576 31.1656 0.0960964 31.1153 0.0610688 31.0559C0.0260411 30.9966 0.00544532 30.9298 0.000940887 30.8611C-0.00356354 30.7923 0.00814935 30.7234 0.0351358 30.66C0.294753 29.685 0.762094 28.7776 1.40514 28C2.04947 27.2375 2.85114 26.6235 3.75514 26.2C4.49608 25.8347 5.26121 25.5206 6.04514 25.26C6.63514 25.08 7.39514 24.88 8.33514 24.68C8.751 24.5893 9.15896 24.4656 9.55514 24.31C10.3582 24.0173 11.0805 23.5384 11.6628 22.9126C12.2451 22.2869 12.6708 21.532 12.9051 20.71C11.325 19.2065 10.1312 17.3437 9.42514 15.28C8.36488 14.2958 7.72094 12.9435 7.62514 11.5C7.60951 11.1334 7.68543 10.7686 7.84605 10.4386C8.00666 10.1087 8.24692 9.82388 8.54514 9.61C8.68286 7.07006 9.7094 4.65944 11.4451 2.8C12.2036 1.92544 13.1402 1.22315 14.1923 0.740231C15.2444 0.257312 16.3875 0.00492647 17.5451 0H17.7251C18.9054 0.0147509 20.0689 0.281052 21.138 0.781133C22.2071 1.28121 23.1573 2.00357 23.9251 2.9C25.6511 4.79818 26.6346 7.25516 26.6951 9.82C27.1035 10.2708 27.322 10.8619 27.3051 11.47C27.2329 12.6664 26.761 13.8038 25.9651 14.7C25.2915 17.1309 23.9345 19.3174 22.0551 21C22.2905 21.8161 22.7187 22.5637 23.3034 23.1798C23.8881 23.7959 24.6124 24.2624 25.4151 24.54C25.8312 24.695 26.2593 24.8154 26.6951 24.9C27.6351 25.11 28.3851 25.29 28.9551 25.45C29.7291 25.6915 30.4844 25.9889 31.2151 26.34C32.1107 26.7144 32.913 27.2811 33.5651 28C34.2093 28.7617 34.6771 29.6564 34.9351 30.62C34.9601 30.6843 34.9699 30.7534 34.9639 30.8221C34.9578 30.8908 34.9361 30.9572 34.9003 31.0161C34.8646 31.0751 34.8158 31.125 34.7576 31.1621C34.6995 31.1992 34.6337 31.2224 34.5651 31.23H34.4451C34.3331 31.2353 34.2227 31.2012 34.1332 31.1336C34.0437 31.066 33.9807 30.9692 33.9551 30.86C33.7257 30.0328 33.3197 29.2652 32.7651 28.61C32.2033 27.9462 31.4946 27.4223 30.6951 27.08C30.0216 26.7867 29.3302 26.5362 28.6251 26.33C28.0751 26.16 27.3751 25.98 26.5251 25.78C26.0289 25.6827 25.5382 25.5592 25.0551 25.41C24.0408 25.0722 23.1352 24.4695 22.432 23.6643C21.7287 22.859 21.2534 21.8805 21.0551 20.83C21.0327 20.7412 21.0379 20.6476 21.0701 20.5619C21.1023 20.4761 21.1598 20.4022 21.2351 20.35C23.0724 18.765 24.4098 16.6806 25.0851 14.35C25.0919 14.2832 25.1123 14.2186 25.1451 14.16C25.8203 13.4213 26.2287 12.4778 26.3051 11.48C26.3087 11.2923 26.2722 11.1061 26.198 10.9336C26.1239 10.7612 26.0138 10.6065 25.8751 10.48C25.816 10.4413 25.7682 10.3875 25.7366 10.3243C25.7049 10.2611 25.6906 10.1906 25.6951 10.12C25.6723 7.7589 24.803 5.48439 23.2451 3.71C22.5758 2.88596 21.7356 2.21693 20.7826 1.74907C19.8296 1.2812 18.7865 1.02564 17.7251 1H17.6251C16.5581 0.995855 15.5032 1.22665 14.5354 1.67599C13.5676 2.12533 12.7106 2.78221 12.0251 3.6C10.4553 5.33452 9.55479 7.5716 9.48514 9.91C9.48209 9.99557 9.45873 10.0792 9.417 10.154C9.37528 10.2287 9.31636 10.2925 9.24514 10.34C9.04177 10.4539 8.8753 10.6237 8.76543 10.8293C8.65555 11.0349 8.60686 11.2676 8.62514 11.5C8.75147 12.7452 9.34025 13.8978 10.2751 14.73C10.2976 14.7559 10.3146 14.7861 10.3249 14.8188C10.3352 14.8515 10.3387 14.8859 10.3351 14.92C11.0271 16.9359 12.2254 18.7403 13.8151 20.16C13.8751 20.2248 13.9175 20.3037 13.9385 20.3895C13.9595 20.4752 13.9584 20.5649 13.9351 20.65C13.732 21.6985 13.2549 22.6746 12.5524 23.4791C11.8498 24.2835 10.9468 24.8876 9.93514 25.23C9.47626 25.3785 9.00872 25.4987 8.53514 25.59C7.67514 25.8 6.97514 25.99 6.42514 26.17C5.87514 26.35 5.17514 26.64 4.32514 27.03C3.51233 27.3782 2.79041 27.9085 2.21514 28.58C1.64847 29.2565 1.23561 30.0481 1.00514 30.9C0.999558 30.9694 0.977576 31.0365 0.940998 31.0958C0.904421 31.1551 0.854293 31.2048 0.794739 31.241C0.735184 31.2771 0.667904 31.2986 0.598434 31.3036C0.528963 31.3087 0.459287 31.2971 0.395136 31.27V31.27Z" fill="#6B6B6B"/>
</svg>
