<svg id="Layer_1" data-name="Layer 1" xmlns="http://www.w3.org/2000/svg" viewBox="0 0 14 11.37"><defs><style>.cls-1{fill:#f3f3f3;}</style></defs><title>twitter</title><path class="cls-1" d="M12.72,3.3a8.11,8.11,0,0,1-8.17,8.17,8.08,8.08,0,0,1-4.4-1.29,5.23,5.23,0,0,0,.69,0A5.76,5.76,0,0,0,4.4,9,2.87,2.87,0,0,1,1.72,7a3.19,3.19,0,0,0,.54,0A3,3,0,0,0,3,7,2.88,2.88,0,0,1,.71,4.13v0A2.88,2.88,0,0,0,2,4.46,2.88,2.88,0,0,1,1.12.62,8.16,8.16,0,0,0,7,3.62,2.81,2.81,0,0,1,7,3a2.87,2.87,0,0,1,5-2A5.49,5.49,0,0,0,13.75.31a2.79,2.79,0,0,1-1.26,1.58,5.81,5.81,0,0,0,1.66-.44,6.32,6.32,0,0,1-1.44,1.48C12.72,3.06,12.72,3.18,12.72,3.3Z" transform="translate(-0.15 -0.1)"/></svg>